<?xml version="1.0" encoding="UTF-8" standalone="no"?>
<svg
   aria-label="GitHub"
   role="img"
   viewBox="0 0 100 100"
   version="1.1"
   id="svg196"
   sodipodi:docname="github.svg"
   width="100"
   height="100"
   inkscape:version="1.2 (dc2aedaf03, 2022-05-15)"
   xmlns:inkscape="http://www.inkscape.org/namespaces/inkscape"
   xmlns:sodipodi="http://sodipodi.sourceforge.net/DTD/sodipodi-0.dtd"
   xmlns="http://www.w3.org/2000/svg"
   xmlns:svg="http://www.w3.org/2000/svg">
  <defs
     id="defs200" />
  <sodipodi:namedview
     id="namedview198"
     pagecolor="#ffffff"
     bordercolor="#000000"
     borderopacity="0.25"
     inkscape:showpageshadow="2"
     inkscape:pageopacity="0.0"
     inkscape:pagecheckerboard="0"
     inkscape:deskcolor="#d1d1d1"
     showgrid="false"
     inkscape:zoom="3.1484375"
     inkscape:cx="-59.55335"
     inkscape:cy="13.975186"
     inkscape:window-width="1920"
     inkscape:window-height="1009"
     inkscape:window-x="-8"
     inkscape:window-y="-8"
     inkscape:window-maximized="1"
     inkscape:current-layer="svg196" />
  <path
     id="rect859"
     style="opacity:0.99;fill:#ffffff;fill-opacity:1;stroke:none;stroke-width:0.266666;stroke-linejoin:round"
     d="M 22.177126,0 C 9.8910491,0 0,9.89105 0,22.177125 V 77.82288 C 0,90.108953 9.8910491,100 22.177126,100 h 12.531279 c 0,0 -0.390623,-3.320315 2.34375,-3.320315 2.539061,0 3.125,-1.171872 3.125,-2.34375 l -0.195313,-8.593749 c -13.867173,3.124997 -16.796875,-6.640625 -16.796875,-6.640625 -2.343748,-5.85937 -5.46875,-7.22656 -5.46875,-7.22656 -4.687494,-3.124997 0.195313,-3.125003 0.195313,-3.125003 5.078121,0.39063 7.8125,5.078129 7.8125,5.078129 4.296871,7.617177 11.523441,5.468746 14.453125,4.296875 0.390625,-3.320309 1.757815,-5.468753 3.125,-6.835936 -11.132801,-1.171878 -22.65625,-5.468772 -22.65625,-24.609379 0,-5.468744 1.953129,-9.960939 5.078125,-13.476562 -0.585938,-1.171873 -2.148436,-6.250006 0.585937,-13.085937 0,0 4.101573,-1.367181 13.671875,5.078124 8.203118,-2.343745 16.796886,-2.343745 25.000001,0 9.570303,-6.445305 13.671874,-5.078124 13.671874,-5.078124 2.734377,6.835931 1.171877,11.914064 0.585938,13.085937 3.125,3.515623 5.078127,8.007818 5.078127,13.476562 0,19.140607 -11.718763,23.437501 -22.851566,24.609379 1.953127,1.562495 3.515627,4.687505 3.515627,9.374997 l -0.195311,13.671872 c 0,1.171878 0.585938,2.34375 3.124999,2.34375 2.734371,0 2.343749,3.320315 2.343749,3.320315 h 7.567599 C 90.108952,100 100,90.108953 100,77.82288 V 22.177125 C 100,9.89105 90.108952,0 77.822879,0 Z" />
</svg>
