<?xml version="1.0" encoding="UTF-8" standalone="no"?>
<!-- Generator: Adobe Illustrator 19.0.0, SVG Export Plug-In . SVG Version: 6.00 Build 0)  -->

<svg
   version="1.1"
   id="Layer_1"
   x="0px"
   y="0px"
   viewBox="0 0 382 382"
   style="enable-background:new 0 0 382 382;"
   xml:space="preserve"
   sodipodi:docname="linkedin-icon.svg"
   inkscape:export-filename="..\Desktop\linkedin-icon.png"
   inkscape:export-xdpi="96"
   inkscape:export-ydpi="96"
   inkscape:version="1.2 (dc2aedaf03, 2022-05-15)"
   xmlns:inkscape="http://www.inkscape.org/namespaces/inkscape"
   xmlns:sodipodi="http://sodipodi.sourceforge.net/DTD/sodipodi-0.dtd"
   xmlns="http://www.w3.org/2000/svg"
   xmlns:svg="http://www.w3.org/2000/svg"><defs
   id="defs1154" /><sodipodi:namedview
   id="namedview1152"
   pagecolor="#ffffff"
   bordercolor="#000000"
   borderopacity="0.25"
   inkscape:showpageshadow="2"
   inkscape:pageopacity="0.0"
   inkscape:pagecheckerboard="0"
   inkscape:deskcolor="#d1d1d1"
   showgrid="false"
   inkscape:zoom="0.76726639"
   inkscape:cx="-154.4444"
   inkscape:cy="280.21558"
   inkscape:window-width="1920"
   inkscape:window-height="1009"
   inkscape:window-x="-8"
   inkscape:window-y="-8"
   inkscape:window-maximized="1"
   inkscape:current-layer="Layer_1" />
<path
   id="rect859"
   style="opacity:0.99;fill:#ffffff;fill-opacity:1;stroke:none;stroke-width:1.01867;stroke-linejoin:round"
   d="M 84.716797 0 C 37.783992 0 0 37.783992 0 84.716797 L 0 297.2832 C 0 344.21601 37.783992 382 84.716797 382 L 297.2832 382 C 344.21601 382 382 344.21601 382 297.2832 L 382 84.716797 C 382 37.783992 344.21601 0 297.2832 0 L 84.716797 0 z M 86.748047 42.099609 C 109.20702 42.099609 127.41406 60.306647 127.41406 82.765625 C 127.41406 105.2246 109.20802 123.43164 86.748047 123.43164 C 64.289069 123.43164 46.082031 105.2246 46.082031 82.765625 C 46.082031 60.306647 64.289069 42.099609 86.748047 42.099609 z M 268.7793 137.33594 C 342.33122 137.33594 341.91016 206.05263 341.91016 243.80859 L 341.91016 330.6543 C 341.91016 335.76029 337.77006 339.90039 332.66406 339.90039 L 286.73047 339.90039 C 281.62447 339.90039 277.48438 335.76029 277.48438 330.6543 L 277.48438 246.48633 C 277.48438 233.93034 281.16784 191.46484 244.67188 191.46484 C 216.3629 191.46484 210.6198 220.53023 209.4668 233.57422 L 209.4668 330.6543 C 209.4668 335.76029 205.3277 339.90039 200.2207 339.90039 L 155.79492 339.90039 C 150.68893 339.90039 146.54883 335.76029 146.54883 330.6543 L 146.54883 149.59375 C 146.54883 144.48776 150.68893 140.34766 155.79492 140.34766 L 200.2207 140.34766 C 205.3267 140.34766 209.4668 144.48776 209.4668 149.59375 L 209.4668 165.24805 C 219.96379 149.49506 235.56433 137.33594 268.7793 137.33594 z M 65.345703 140.34766 L 108.15039 140.34766 C 113.70439 140.34766 118.20703 144.84835 118.20703 150.40234 L 118.20703 329.84375 C 118.20703 335.39774 113.70439 339.90039 108.15039 339.90039 L 65.345703 339.90039 C 59.791709 339.90039 55.289062 335.39774 55.289062 329.84375 L 55.289062 150.40234 C 55.289062 144.84835 59.791709 140.34766 65.345703 140.34766 z " />
<g
   id="g1121">
</g>
<g
   id="g1123">
</g>
<g
   id="g1125">
</g>
<g
   id="g1127">
</g>
<g
   id="g1129">
</g>
<g
   id="g1131">
</g>
<g
   id="g1133">
</g>
<g
   id="g1135">
</g>
<g
   id="g1137">
</g>
<g
   id="g1139">
</g>
<g
   id="g1141">
</g>
<g
   id="g1143">
</g>
<g
   id="g1145">
</g>
<g
   id="g1147">
</g>
<g
   id="g1149">
</g>
</svg>
