<?xml version="1.0" encoding="UTF-8" standalone="no"?>
<!-- Generator: Adobe Illustrator 19.0.0, SVG Export Plug-In . SVG Version: 6.00 Build 0)  -->

<svg
   version="1.1"
   id="Layer_1"
   x="0px"
   y="0px"
   viewBox="0 0 504.4 504.4"
   style="enable-background:new 0 0 504.4 504.4;"
   xml:space="preserve"
   sodipodi:docname="twitter-icon.svg"
   inkscape:version="1.2 (dc2aedaf03, 2022-05-15)"
   xmlns:inkscape="http://www.inkscape.org/namespaces/inkscape"
   xmlns:sodipodi="http://sodipodi.sourceforge.net/DTD/sodipodi-0.dtd"
   xmlns="http://www.w3.org/2000/svg"
   xmlns:svg="http://www.w3.org/2000/svg"><defs
   id="defs953" /><sodipodi:namedview
   id="namedview951"
   pagecolor="#ffffff"
   bordercolor="#000000"
   borderopacity="0.25"
   inkscape:showpageshadow="2"
   inkscape:pageopacity="0.0"
   inkscape:pagecheckerboard="0"
   inkscape:deskcolor="#d1d1d1"
   showgrid="false"
   inkscape:zoom="0.82176845"
   inkscape:cx="-97.959468"
   inkscape:cy="165.49674"
   inkscape:window-width="1920"
   inkscape:window-height="1009"
   inkscape:window-x="-8"
   inkscape:window-y="-8"
   inkscape:window-maximized="1"
   inkscape:current-layer="Layer_1" />
<path
   id="rect859"
   style="opacity:0.99;fill:#ffffff;fill-opacity:1;stroke:none;stroke-width:1.3448;stroke-linejoin:round"
   d="M 111.81641 0 C 49.870014 0 0 49.870014 0 111.81641 L 0 392.38281 C 0 454.3292 49.870014 504.19922 111.81641 504.19922 L 392.58398 504.19922 C 454.53038 504.19922 504.40039 454.3292 504.40039 392.38281 L 504.40039 111.81641 C 504.40039 49.870014 454.53038 0 392.58398 0 L 111.81641 0 z M 312.40039 126.59961 C 330.80037 126.59961 347.59962 134.19962 359.59961 146.59961 C 374.39959 143.79961 388.0004 138.59999 400.40039 131 C 395.6004 145.79999 385.19999 158.19923 372 166.19922 C 385.19999 164.59922 397.59923 161.39921 409.19922 156.19922 C 400.39923 168.99921 389.59921 180.20001 377.19922 189 L 377.19922 197.40039 C 377.19922 281.40031 312.39949 378.19922 193.59961 378.19922 C 157.19965 378.19922 123.20075 367.80076 94.800781 349.80078 C 100.00078 350.20078 104.80001 350.59961 110 350.59961 C 140.39997 350.59961 168.00002 340.60037 190 323.40039 C 161.60003 323.00039 137.9996 304.60037 129.59961 279.40039 C 133.59961 280.20039 137.59961 280.59961 141.59961 280.59961 C 147.5996 280.59961 153.60079 279.79922 158.80078 278.19922 C 130.00081 272.19922 108 246.60075 108 215.80078 L 108 215 C 115.99999 219.8 126.40079 222.6 136.80078 223 C 119.6008 211.80001 108 192.1992 108 170.19922 C 108 158.59923 111.20079 147.79921 116.80078 138.19922 C 148.80075 176.59918 195.99966 201.79961 249.59961 204.59961 C 248.39961 199.79961 248 194.99921 248 190.19922 C 248 154.99925 276.80043 126.59961 312.40039 126.59961 z "
   inkscape:export-filename="..\Desktop\twitter-icon.png"
   inkscape:export-xdpi="96"
   inkscape:export-ydpi="96" /><g
   id="g918">
	<g
   id="g916">
		
	</g>
</g>
<g
   id="g920">
</g>
<g
   id="g922">
</g>
<g
   id="g924">
</g>
<g
   id="g926">
</g>
<g
   id="g928">
</g>
<g
   id="g930">
</g>
<g
   id="g932">
</g>
<g
   id="g934">
</g>
<g
   id="g936">
</g>
<g
   id="g938">
</g>
<g
   id="g940">
</g>
<g
   id="g942">
</g>
<g
   id="g944">
</g>
<g
   id="g946">
</g>
<g
   id="g948">
</g>
</svg>
